<?xml version="1.0" encoding="iso-8859-1"?>
<!-- Generator: Adobe Illustrator 18.0.0, SVG Export Plug-In . SVG Version: 6.00 Build 0)  -->
<!DOCTYPE svg PUBLIC "-//W3C//DTD SVG 1.0//EN" "http://www.w3.org/TR/2001/REC-SVG-20010904/DTD/svg10.dtd" [
	<!ENTITY ns_extend "http://ns.adobe.com/Extensibility/1.0/">
	<!ENTITY ns_ai "http://ns.adobe.com/AdobeIllustrator/10.0/">
	<!ENTITY ns_graphs "http://ns.adobe.com/Graphs/1.0/">
	<!ENTITY ns_vars "http://ns.adobe.com/Variables/1.0/">
	<!ENTITY ns_imrep "http://ns.adobe.com/ImageReplacement/1.0/">
	<!ENTITY ns_sfw "http://ns.adobe.com/SaveForWeb/1.0/">
	<!ENTITY ns_custom "http://ns.adobe.com/GenericCustomNamespace/1.0/">
	<!ENTITY ns_adobe_xpath "http://ns.adobe.com/XPath/1.0/">
]>
<svg version="1.0" id="&#x56FE;&#x5C42;_1" xmlns:x="&ns_extend;" xmlns:i="&ns_ai;" xmlns:graph="&ns_graphs;"
	 xmlns="http://www.w3.org/2000/svg" xmlns:xlink="http://www.w3.org/1999/xlink" x="0px" y="0px" viewBox="0 0 64 64"
	 enable-background="new 0 0 64 64" xml:space="preserve">
<metadata>
	<sfw  xmlns="&ns_sfw;">
		<slices></slices>
		<sliceSourceBounds  width="1423" height="511" x="-419" y="-492" bottomLeftOrigin="true"></sliceSourceBounds>
	</sfw>
</metadata>
<g id="XMLID_39_">
	<linearGradient id="SVGID_1_" gradientUnits="userSpaceOnUse" x1="32" y1="64" x2="32" y2="-8.367351e-010">
		<stop  offset="0" style="stop-color:#50B723"/>
		<stop  offset="0.6779" style="stop-color:#C6DF51"/>
		<stop  offset="1" style="stop-color:#E3FA0A"/>
	</linearGradient>
	<path fill-rule="evenodd" clip-rule="evenodd" fill="url(#SVGID_1_)" d="M13.3,0h37.3C58,0,64,6,64,13.3v37.3C64,58,58,64,50.7,64
		H13.3C6,64,0,58,0,50.7V13.3C0,6,6,0,13.3,0z"/>
	<linearGradient id="SVGID_2_" gradientUnits="userSpaceOnUse" x1="3.9052" y1="3.9052" x2="60.0948" y2="60.0948">
		<stop  offset="0" style="stop-color:#231815;stop-opacity:0.15"/>
		<stop  offset="2.826799e-002" style="stop-color:#231815;stop-opacity:0.1288"/>
		<stop  offset="0.2" style="stop-color:#231815;stop-opacity:0"/>
		<stop  offset="0.2" style="stop-color:#231815;stop-opacity:2.120099e-002"/>
		<stop  offset="0.2" style="stop-color:#231815;stop-opacity:0.15"/>
		<stop  offset="0.4" style="stop-color:#231815;stop-opacity:0"/>
		<stop  offset="0.4" style="stop-color:#231815;stop-opacity:2.120099e-002"/>
		<stop  offset="0.4" style="stop-color:#231815;stop-opacity:0.15"/>
		<stop  offset="0.4283" style="stop-color:#231815;stop-opacity:0.1288"/>
		<stop  offset="0.6" style="stop-color:#231815;stop-opacity:0"/>
		<stop  offset="0.6" style="stop-color:#231815;stop-opacity:2.120099e-002"/>
		<stop  offset="0.6" style="stop-color:#231815;stop-opacity:0.15"/>
		<stop  offset="0.6283" style="stop-color:#231815;stop-opacity:0.1288"/>
		<stop  offset="0.8" style="stop-color:#231815;stop-opacity:0"/>
		<stop  offset="0.8" style="stop-color:#231815;stop-opacity:2.120099e-002"/>
		<stop  offset="0.8" style="stop-color:#231815;stop-opacity:0.15"/>
	</linearGradient>
	<path fill-rule="evenodd" clip-rule="evenodd" fill="url(#SVGID_2_)" d="M13.3,0h37.3C58,0,64,6,64,13.3v37.3C64,58,58,64,50.7,64
		H13.3C6,64,0,58,0,50.7V13.3C0,6,6,0,13.3,0z"/>
</g>
<g>
	<linearGradient id="SVGID_3_" gradientUnits="userSpaceOnUse" x1="19.3378" y1="51.0032" x2="45.5878" y2="13.8365">
		<stop  offset="0" style="stop-color:#FFFFFF"/>
		<stop  offset="0.2555" style="stop-color:#FDFDFD"/>
		<stop  offset="0.3475" style="stop-color:#F6F6F6"/>
		<stop  offset="0.4131" style="stop-color:#EBEBEB"/>
		<stop  offset="0.4661" style="stop-color:#DADADA"/>
		<stop  offset="0.511" style="stop-color:#C4C4C4"/>
		<stop  offset="0.5347" style="stop-color:#B5B5B5"/>
		<stop  offset="0.5354" style="stop-color:#B5B5B5"/>
		<stop  offset="0.5408" style="stop-color:#B5B5B5"/>
		<stop  offset="0.5611" style="stop-color:#C4C4C4"/>
		<stop  offset="0.5997" style="stop-color:#DADADA"/>
		<stop  offset="0.6452" style="stop-color:#EBEBEB"/>
		<stop  offset="0.7016" style="stop-color:#F6F6F6"/>
		<stop  offset="0.7806" style="stop-color:#FDFDFD"/>
		<stop  offset="1" style="stop-color:#FFFFFF"/>
	</linearGradient>
	<path fill="url(#SVGID_3_)" d="M40.9,15.1c0.7-1,1.4-1.6,2.2-1.9c0.8-0.3,1.6-0.1,2.6,0.5c0.9,0.6,1.5,1.2,1.6,2
		c0.1,0.7-0.1,1.5-0.6,2.2L23.5,50.3c-1.1,1.6-2.6,1.8-4.3,0.7c-0.7-0.5-1.2-1.1-1.4-1.9c-0.2-0.8,0-1.6,0.6-2.4L40.9,15.1z"/>
	<path fill="#FFFFFF" d="M48.6,47.4c0.4,0.5,0.5,1.1,0.3,1.7c-0.1,0.7-0.7,1.3-1.6,1.9c-1,0.6-1.8,0.9-2.5,0.6
		c-0.7-0.2-1.3-0.7-1.8-1.5L19.8,18c-0.4-0.6-0.5-1.3-0.3-2.1c0.2-0.8,0.6-1.4,1.3-1.9c0.9-0.6,1.7-0.9,2.4-0.9
		c0.7,0.1,1.3,0.5,1.9,1.3L48.6,47.4z"/>
</g>
</svg>
